<svg xmlns="http://www.w3.org/2000/svg" width="150" height="150" shape-rendering="crispEdges" viewBox="0 -0.5 150 150"><path stroke="#6e7f8f" d="M33 29h21m42 0h21m-84 1h21m42 0h21m-84 1h21m42 0h21m-84 1h21m42 0h21m-84 1h21m42 0h21m-84 1h21m42 0h21m-84 1h21m42 0h21m-91 1h7m28 0h28m28 0h7m-98 1h7m28 0h28m28 0h7m-98 1h7m28 0h28m28 0h7m-98 1h7m28 0h28m28 0h7m-98 1h7m28 0h28m28 0h7m-98 1h7m28 0h28m28 0h7m-98 1h7m28 0h28m28 0h7M19 43h7m21 0h7m42 0h7m21 0h7M19 44h7m21 0h7m42 0h7m21 0h7M19 45h7m21 0h7m42 0h7m21 0h7M19 46h7m21 0h7m42 0h7m21 0h7M19 47h7m21 0h7m42 0h7m21 0h7M19 48h7m21 0h7m42 0h7m21 0h7M19 49h7m21 0h7m42 0h7m21 0h7M12 50h7m112 0h7M12 51h7m112 0h7M12 52h7m112 0h7M12 53h7m112 0h7M12 54h7m112 0h7M12 55h7m112 0h7M12 56h7m112 0h7M5 57h7m28 0h7m56 0h7m28 0h7M5 58h7m28 0h7m56 0h7m28 0h7M5 59h7m28 0h7m56 0h7m28 0h7M5 60h7m28 0h7m56 0h7m28 0h7M5 61h7m28 0h7m56 0h7m28 0h7M5 62h7m28 0h7m56 0h7m28 0h7M5 63h7m28 0h7m56 0h7m28 0h7M5 64h7m28 0h7m56 0h7m28 0h7M5 65h7m28 0h7m56 0h7m28 0h7M5 66h7m28 0h7m56 0h7m28 0h7M5 67h7m28 0h7m56 0h7m28 0h7M5 68h7m28 0h7m56 0h7m28 0h7M5 69h7m28 0h7m56 0h7m28 0h7M5 70h7m28 0h7m56 0h7m28 0h7M40 71h7m56 0h7m-70 1h7m56 0h7m-70 1h7m56 0h7m-70 1h7m56 0h7m-70 1h7m56 0h7m-70 1h7m56 0h7m-70 1h7m56 0h7m-70 1h7m56 0h7m-70 1h7m56 0h7m-70 1h7m56 0h7m-70 1h7m56 0h7m-70 1h7m56 0h7m-70 1h7m56 0h7m-70 1h7m56 0h7"/><path stroke="#c4d7e0" d="M33 36h7m70 0h7m-84 1h7m70 0h7m-84 1h7m70 0h7m-84 1h7m70 0h7m-84 1h7m70 0h7m-84 1h7m70 0h7m-84 1h7m70 0h7m-91 1h7m-7 1h7m-7 1h7m-7 1h7m-7 1h7m-7 1h7m-7 1h7m-14 1h7m42 0h14m-63 1h7m42 0h14m-63 1h7m42 0h14m-63 1h7m42 0h14m-63 1h7m42 0h14m-63 1h7m42 0h14m-63 1h7m42 0h14m-14 1h14m-14 1h14m-14 1h14m-14 1h14m-14 1h14m-14 1h14m-14 1h14m-14 1h7m-7 1h7m-7 1h7m-7 1h7m-7 1h7m-7 1h7m-7 1h7"/><path stroke="#afbfc9" d="M40 36h7m56 0h7m-70 1h7m56 0h7m-70 1h7m56 0h7m-70 1h7m56 0h7m-70 1h7m56 0h7m-70 1h7m56 0h7m-70 1h7m56 0h7m-49 1h28m28 0h7m-63 1h28m28 0h7m-63 1h28m28 0h7m-63 1h28m28 0h7m-63 1h28m28 0h7m-63 1h28m28 0h7m-63 1h28m28 0h7m-70 1h14m14 0h14m28 0h7m-77 1h14m14 0h14m28 0h7m-77 1h14m14 0h14m28 0h7m-77 1h14m14 0h14m28 0h7m-77 1h14m14 0h14m28 0h7m-77 1h14m14 0h14m28 0h7m-77 1h14m14 0h14m28 0h7M12 57h7m7 0h7m14 0h21m14 0h21m14 0h7m7 0h7M12 58h7m7 0h7m14 0h21m14 0h21m14 0h7m7 0h7M12 59h7m7 0h7m14 0h21m14 0h21m14 0h7m7 0h7M12 60h7m7 0h7m14 0h21m14 0h21m14 0h7m7 0h7M12 61h7m7 0h7m14 0h21m14 0h21m14 0h7m7 0h7M12 62h7m7 0h7m14 0h21m14 0h21m14 0h7m7 0h7M12 63h7m7 0h7m14 0h21m14 0h21m14 0h7m7 0h7M12 64h21m28 0h7m7 0h14m28 0h21M12 65h21m28 0h7m7 0h14m28 0h21M12 66h21m28 0h7m7 0h14m28 0h21M12 67h21m28 0h7m7 0h14m28 0h21M12 68h21m28 0h7m7 0h14m28 0h21M12 69h21m28 0h7m7 0h14m28 0h21M12 70h21m28 0h7m7 0h14m28 0h21M19 71h14m28 0h28m28 0h14M19 72h14m28 0h28m28 0h14M19 73h14m28 0h28m28 0h14M19 74h14m28 0h28m28 0h14M19 75h14m28 0h28m28 0h14M19 76h14m28 0h28m28 0h14M19 77h14m28 0h28m28 0h14M26 78h7m28 0h7m14 0h7m28 0h7m-98 1h7m28 0h7m14 0h7m28 0h7m-98 1h7m28 0h7m14 0h7m28 0h7m-98 1h7m28 0h7m14 0h7m28 0h7m-98 1h7m28 0h7m14 0h7m28 0h7m-98 1h7m28 0h7m14 0h7m28 0h7m-98 1h7m28 0h7m14 0h7m28 0h7m-63 1h28m-28 1h28m-28 1h28m-28 1h28m-28 1h28m-28 1h28m-28 1h28m-35 1h42m-42 1h42m-42 1h42m-42 1h42m-42 1h42m-42 1h42m-42 1h42m-28 1h14m-14 1h14m-14 1h14m-14 1h14m-14 1h14m-14 1h14m-14 1h14m-14 8h14m-14 1h14m-14 1h14m-14 1h14m-14 1h14m-14 1h14m-14 1h14m-14 8h14m-14 1h14m-14 1h14m-14 1h14m-14 1h14m-14 1h14m-14 1h14"/><path stroke="#839aa5" d="M47 36h7m42 0h7m-56 1h7m42 0h7m-56 1h7m42 0h7m-56 1h7m42 0h7m-56 1h7m42 0h7m-56 1h7m42 0h7m-56 1h7m42 0h7m-70 1h14m7 0h7m28 0h7m7 0h14m-84 1h14m7 0h7m28 0h7m7 0h14m-84 1h14m7 0h7m28 0h7m7 0h14m-84 1h14m7 0h7m28 0h7m7 0h14m-84 1h14m7 0h7m28 0h7m7 0h14m-84 1h14m7 0h7m28 0h7m7 0h14m-84 1h14m7 0h7m28 0h7m7 0h14m-91 1h28m42 0h28m-98 1h28m42 0h28m-98 1h28m42 0h28m-98 1h28m42 0h28m-98 1h28m42 0h28m-98 1h28m42 0h28m-98 1h28m42 0h28M19 57h7m7 0h7m70 0h7m7 0h7M19 58h7m7 0h7m70 0h7m7 0h7M19 59h7m7 0h7m70 0h7m7 0h7M19 60h7m7 0h7m70 0h7m7 0h7M19 61h7m7 0h7m70 0h7m7 0h7M19 62h7m7 0h7m70 0h7m7 0h7M19 63h7m7 0h7m70 0h7m7 0h7m-98 1h7m70 0h7m-84 1h7m70 0h7m-84 1h7m70 0h7m-84 1h7m70 0h7m-84 1h7m70 0h7m-84 1h7m70 0h7m-84 1h7m70 0h7M12 71h7m14 0h7m70 0h7m14 0h7M12 72h7m14 0h7m70 0h7m14 0h7M12 73h7m14 0h7m70 0h7m14 0h7M12 74h7m14 0h7m70 0h7m14 0h7M12 75h7m14 0h7m70 0h7m14 0h7M12 76h7m14 0h7m70 0h7m14 0h7M12 77h7m14 0h7m70 0h7m14 0h7M12 78h14m7 0h7m28 0h14m28 0h7m7 0h14M12 79h14m7 0h7m28 0h14m28 0h7m7 0h14M12 80h14m7 0h7m28 0h14m28 0h7m7 0h14M12 81h14m7 0h7m28 0h14m28 0h7m7 0h14M12 82h14m7 0h7m28 0h14m28 0h7m7 0h14M12 83h14m7 0h7m28 0h14m28 0h7m7 0h14M12 84h14m7 0h7m28 0h14m28 0h7m7 0h14M19 85h21m7 0h14m28 0h14m7 0h21M19 86h21m7 0h14m28 0h14m7 0h21M19 87h21m7 0h14m28 0h14m7 0h21M19 88h21m7 0h14m28 0h14m7 0h21M19 89h21m7 0h14m28 0h14m7 0h21M19 90h21m7 0h14m28 0h14m7 0h21M19 91h21m7 0h14m28 0h14m7 0h21m-84 1h7m42 0h7m-56 1h7m42 0h7m-56 1h7m42 0h7m-56 1h7m42 0h7m-56 1h7m42 0h7m-56 1h7m42 0h7m-56 1h7m42 0h7m-35 8h14m-14 1h14m-14 1h14m-14 1h14m-14 1h14m-14 1h14m-14 1h14m-14 8h14m-14 1h14m-14 1h14m-14 1h14m-14 1h14m-14 1h14m-14 1h14m-14 8h14m-14 1h14m-14 1h14m-14 1h14m-14 1h14m-14 1h14m-14 1h14"/><path stroke="#565f78" d="M54 36h7m28 0h7m-42 1h7m28 0h7m-42 1h7m28 0h7m-42 1h7m28 0h7m-42 1h7m28 0h7m-42 1h7m28 0h7m-42 1h7m28 0h7M5 71h7m126 0h7M5 72h7m126 0h7M5 73h7m126 0h7M5 74h7m126 0h7M5 75h7m126 0h7M5 76h7m126 0h7M5 77h7m126 0h7M5 78h7m126 0h7M5 79h7m126 0h7M5 80h7m126 0h7M5 81h7m126 0h7M5 82h7m126 0h7M5 83h7m126 0h7M5 84h7m126 0h7M12 85h7m21 0h7m56 0h7m21 0h7M12 86h7m21 0h7m56 0h7m21 0h7M12 87h7m21 0h7m56 0h7m21 0h7M12 88h7m21 0h7m56 0h7m21 0h7M12 89h7m21 0h7m56 0h7m21 0h7M12 90h7m21 0h7m56 0h7m21 0h7M12 91h7m21 0h7m56 0h7m21 0h7M19 92h28m56 0h28M19 93h28m56 0h28M19 94h28m56 0h28M19 95h28m56 0h28M19 96h28m56 0h28M19 97h28m56 0h28M19 98h28m56 0h28m-84 1h7m7 0h7m14 0h7m7 0h7m-56 1h7m7 0h7m14 0h7m7 0h7m-56 1h7m7 0h7m14 0h7m7 0h7m-56 1h7m7 0h7m14 0h7m7 0h7m-56 1h7m7 0h7m14 0h7m7 0h7m-56 1h7m7 0h7m14 0h7m7 0h7m-56 1h7m7 0h7m14 0h7m7 0h7m-56 1h7m7 0h7m14 0h7m7 0h7m-56 1h7m7 0h7m14 0h7m7 0h7m-56 1h7m7 0h7m14 0h7m7 0h7m-56 1h7m7 0h7m14 0h7m7 0h7m-56 1h7m7 0h7m14 0h7m7 0h7m-56 1h7m7 0h7m14 0h7m7 0h7m-56 1h7m7 0h7m14 0h7m7 0h7m-42 1h7m14 0h7m-28 1h7m14 0h7m-28 1h7m14 0h7m-28 1h7m14 0h7m-28 1h7m14 0h7m-28 1h7m14 0h7m-28 1h7m14 0h7m-28 1h7m14 0h7m-28 1h7m14 0h7m-28 1h7m14 0h7m-28 1h7m14 0h7m-28 1h7m14 0h7m-28 1h7m14 0h7m-28 1h7m14 0h7m-28 1h7m14 0h7m-28 1h7m14 0h7m-28 1h7m14 0h7m-28 1h7m14 0h7m-28 1h7m14 0h7m-28 1h7m14 0h7m-28 1h7m14 0h7m-28 1h7m14 0h7m-28 1h7m14 0h7m-28 1h7m14 0h7m-28 1h7m14 0h7m-28 1h7m14 0h7m-28 1h7m14 0h7m-28 1h7m14 0h7m-21 1h14m-14 1h14m-14 1h14m-14 1h14m-14 1h14m-14 1h14m-14 1h14"/><path stroke="#f9f4f8" d="M47 64h7m42 0h7m-56 1h7m42 0h7m-56 1h7m42 0h7m-56 1h7m42 0h7m-56 1h7m42 0h7m-56 1h7m42 0h7m-56 1h7m42 0h7m-7 1h7m-7 1h7m-7 1h7m-7 1h7m-7 1h7m-7 1h7m-7 1h7m-14 29h7m-7 1h7m-7 1h7m-7 1h7m-7 1h7m-7 1h7m-7 1h7m-49 1h7m35 0h14m-56 1h7m35 0h14m-56 1h7m35 0h14m-56 1h7m35 0h14m-56 1h7m35 0h14m-56 1h7m35 0h14m-56 1h7m35 0h14"/><path stroke="#e7d9d3" d="M54 64h7m28 0h7m-42 1h7m28 0h7m-42 1h7m28 0h7m-42 1h7m28 0h7m-42 1h7m28 0h7m-42 1h7m28 0h7m-42 1h7m28 0h7m-49 8h7m42 0h7m-56 1h7m42 0h7m-56 1h7m42 0h7m-56 1h7m42 0h7m-56 1h7m42 0h7m-56 1h7m42 0h7m-56 1h7m42 0h7M54 99h7m28 0h7m-42 1h7m28 0h7m-42 1h7m28 0h7m-42 1h7m28 0h7m-42 1h7m28 0h7m-42 1h7m28 0h7m-42 1h7m28 0h7"/><path stroke="#f9f4f4" d="M47 71h7m-7 1h7m-7 1h7m-7 1h7m-7 1h7m-7 1h7m-7 1h7m0 29h7m-7 1h7m-7 1h7m-7 1h7m-7 1h7m-7 1h7m-7 1h7m-7 1h7m-7 1h7m-7 1h7m-7 1h7m-7 1h7m-7 1h7m-7 1h7"/><path stroke="#263331" d="M54 71h7m28 0h7m-42 1h7m28 0h7m-42 1h7m28 0h7m-42 1h7m28 0h7m-42 1h7m28 0h7m-42 1h7m28 0h7m-42 1h7m28 0h7"/><path stroke="#131a19" d="M54 78h7m28 0h7m-42 1h7m28 0h7m-42 1h7m28 0h7m-42 1h7m28 0h7m-42 1h7m28 0h7m-42 1h7m28 0h7m-42 1h7m28 0h7"/></svg>