<svg xmlns="http://www.w3.org/2000/svg" width="800" height="150" shape-rendering="crispEdges" viewBox="0 -0.5 800 150"><path stroke="#8b8e94" d="M327 15h455m-455 1h455m-455 1h455m-455 1h455m-455 1h455m-455 1h455m-455 1h455m-462 1h7m455 0h7m-469 1h7m455 0h7m-469 1h7m455 0h7m-469 1h7m455 0h7m-469 1h7m455 0h7m-469 1h7m455 0h7m-469 1h7m455 0h7m-455 1h7m441 0h7m-455 1h7m441 0h7m-455 1h7m441 0h7m-455 1h7m441 0h7m-455 1h7m441 0h7m-455 1h7m441 0h7m-455 1h7m441 0h7m-455 1h7m441 0h7m-455 1h7m441 0h7m-455 1h7m441 0h7m-455 1h7m441 0h7m-455 1h7m441 0h7m-455 1h7m441 0h7m-455 1h7m441 0h7m-455 1h7m441 0h7m-455 1h7m441 0h7m-455 1h7m441 0h7m-455 1h7m441 0h7m-455 1h7m441 0h7m-455 1h7m441 0h7m-455 1h7m441 0h7m-455 1h7m168 0h196m14 0h49m14 0h7m-455 1h7m168 0h196m14 0h49m14 0h7m-455 1h7m168 0h196m14 0h49m14 0h7m-455 1h7m168 0h196m14 0h49m14 0h7m-455 1h7m168 0h196m14 0h49m14 0h7m-455 1h7m168 0h196m14 0h49m14 0h7m-455 1h7m168 0h196m14 0h49m14 0h7m-455 1h7m168 0h7m35 0h7m35 0h7m35 0h7m28 0h14m14 0h7m14 0h7m35 0h7m14 0h7m-455 1h7m168 0h7m35 0h7m35 0h7m35 0h7m28 0h14m14 0h7m14 0h7m35 0h7m14 0h7m-455 1h7m168 0h7m35 0h7m35 0h7m35 0h7m28 0h14m14 0h7m14 0h7m35 0h7m14 0h7m-455 1h7m168 0h7m35 0h7m35 0h7m35 0h7m28 0h14m14 0h7m14 0h7m35 0h7m14 0h7m-455 1h7m168 0h7m35 0h7m35 0h7m35 0h7m28 0h14m14 0h7m14 0h7m35 0h7m14 0h7m-455 1h7m168 0h7m35 0h7m35 0h7m35 0h7m28 0h14m14 0h7m14 0h7m35 0h7m14 0h7m-455 1h7m168 0h7m35 0h7m35 0h7m35 0h7m28 0h14m14 0h7m14 0h7m35 0h7m14 0h7m-455 1h7m168 0h7m14 0h28m14 0h7m14 0h7m14 0h7m14 0h7m14 0h7m14 0h7m14 0h7m14 0h7m14 0h28m14 0h7m-455 1h7m168 0h7m14 0h28m14 0h7m14 0h7m14 0h7m14 0h7m14 0h7m14 0h7m14 0h7m14 0h7m14 0h28m14 0h7m-455 1h7m168 0h7m14 0h28m14 0h7m14 0h7m14 0h7m14 0h7m14 0h7m14 0h7m14 0h7m14 0h7m14 0h28m14 0h7m-455 1h7m168 0h7m14 0h28m14 0h7m14 0h7m14 0h7m14 0h7m14 0h7m14 0h7m14 0h7m14 0h7m14 0h28m14 0h7m-455 1h7m168 0h7m14 0h28m14 0h7m14 0h7m14 0h7m14 0h7m14 0h7m14 0h7m14 0h7m14 0h7m14 0h28m14 0h7m-455 1h7m168 0h7m14 0h28m14 0h7m14 0h7m14 0h7m14 0h7m14 0h7m14 0h7m14 0h7m14 0h7m14 0h28m14 0h7m-455 1h7m168 0h7m14 0h28m14 0h7m14 0h7m14 0h7m14 0h7m14 0h7m14 0h7m14 0h7m14 0h7m14 0h28m14 0h7m-455 1h7m168 0h7m14 0h28m28 0h14m35 0h7m14 0h7m14 0h7m14 0h7m14 0h7m28 0h7m21 0h7m-455 1h7m168 0h7m14 0h28m28 0h14m35 0h7m14 0h7m14 0h7m14 0h7m14 0h7m28 0h7m21 0h7m-455 1h7m168 0h7m14 0h28m28 0h14m35 0h7m14 0h7m14 0h7m14 0h7m14 0h7m28 0h7m21 0h7m-455 1h7m168 0h7m14 0h28m28 0h14m35 0h7m14 0h7m14 0h7m14 0h7m14 0h7m28 0h7m21 0h7m-455 1h7m168 0h7m14 0h28m28 0h14m35 0h7m14 0h7m14 0h7m14 0h7m14 0h7m28 0h7m21 0h7m-455 1h7m168 0h7m14 0h28m28 0h14m35 0h7m14 0h7m14 0h7m14 0h7m14 0h7m28 0h7m21 0h7m-455 1h7m168 0h7m14 0h28m28 0h14m35 0h7m14 0h7m14 0h7m14 0h7m14 0h7m28 0h7m21 0h7m-441 36h7m413 0h7m-427 1h7m413 0h7m-427 1h7m413 0h7m-427 1h7m413 0h7m-427 1h7m413 0h7m-427 1h7m413 0h7m-427 1h7m413 0h7"/><path stroke="#d5e0df" d="M327 22h126m98 0h14m14 0h98m14 0h49m7 0h7m-427 1h126m98 0h14m14 0h98m14 0h49m7 0h7m-427 1h126m98 0h14m14 0h98m14 0h49m7 0h7m-427 1h126m98 0h14m14 0h98m14 0h49m7 0h7m-427 1h126m98 0h14m14 0h98m14 0h49m7 0h7m-427 1h126m98 0h14m14 0h98m14 0h49m7 0h7m-427 1h126m98 0h14m14 0h98m14 0h49m7 0h7m-413 1h7m-7 1h7m-7 1h7m-7 1h7m-7 1h7m-7 1h7m-7 1h7m-7 8h7m-7 1h7m-7 1h7m-7 1h7m-7 1h7m-7 1h7m-7 1h7"/><path stroke="#e6f2f1" d="M453 22h98m14 0h14m98 0h14m-238 1h98m14 0h14m98 0h14m-238 1h98m14 0h14m98 0h14m-238 1h98m14 0h14m98 0h14m-238 1h98m14 0h14m98 0h14m-238 1h98m14 0h14m98 0h14m-238 1h98m14 0h14m98 0h14"/><path stroke="#bdc7c7" d="M740 22h7m7 0h28m-42 1h7m7 0h28m-42 1h7m7 0h28m-42 1h7m7 0h28m-42 1h7m7 0h28m-42 1h7m7 0h28m-42 1h7m7 0h28m-427 1h28m21 0h42m112 0h14m14 0h98m14 0h70m7 0h7m-427 1h28m21 0h42m112 0h14m14 0h98m14 0h70m7 0h7m-427 1h28m21 0h42m112 0h14m14 0h98m14 0h70m7 0h7m-427 1h28m21 0h42m112 0h14m14 0h98m14 0h70m7 0h7m-427 1h28m21 0h42m112 0h14m14 0h98m14 0h70m7 0h7m-427 1h28m21 0h42m112 0h14m14 0h98m14 0h70m7 0h7m-427 1h28m21 0h42m112 0h14m14 0h98m14 0h70m7 0h7m-441 1h35m189 0h14m14 0h98m14 0h77m-441 1h35m189 0h14m14 0h98m14 0h77m-441 1h35m189 0h14m14 0h98m14 0h77m-441 1h35m189 0h14m14 0h98m14 0h77m-441 1h35m189 0h14m14 0h98m14 0h77m-441 1h35m189 0h14m14 0h98m14 0h77m-441 1h35m189 0h14m14 0h98m14 0h77m-434 1h21m203 0h14m14 0h98m14 0h70m-434 1h21m203 0h14m14 0h98m14 0h70m-434 1h21m203 0h14m14 0h98m14 0h70m-434 1h21m203 0h14m14 0h98m14 0h70m-434 1h21m203 0h14m14 0h98m14 0h70m-434 1h21m203 0h14m14 0h98m14 0h70m-434 1h21m203 0h14m14 0h98m14 0h70m-441 1h21m406 0h7m-434 1h21m406 0h7m-434 1h21m406 0h7m-434 1h21m406 0h7m-434 1h21m406 0h7m-434 1h21m406 0h7m-434 1h21m406 0h7m-434 1h14m350 0h7m56 0h14m-441 1h14m350 0h7m56 0h14m-441 1h14m350 0h7m56 0h14m-441 1h14m350 0h7m56 0h14m-441 1h14m350 0h7m56 0h14m-441 1h14m350 0h7m56 0h14m-441 1h14m350 0h7m56 0h14m-441 1h14m350 0h14m49 0h7m-434 1h14m350 0h14m49 0h7m-434 1h14m350 0h14m49 0h7m-434 1h14m350 0h14m49 0h7m-434 1h14m350 0h14m49 0h7m-434 1h14m350 0h14m49 0h7m-434 1h14m350 0h14m49 0h7m-434 1h14m140 0h7m203 0h14m42 0h14m-434 1h14m140 0h7m203 0h14m42 0h14m-434 1h14m140 0h7m203 0h14m42 0h14m-434 1h14m140 0h7m203 0h14m42 0h14m-434 1h14m140 0h7m203 0h14m42 0h14m-434 1h14m140 0h7m203 0h14m42 0h14m-434 1h14m140 0h7m203 0h14m42 0h14m-434 1h14m140 0h14m259 0h7m-434 1h14m140 0h14m259 0h7m-434 1h14m140 0h14m259 0h7m-434 1h14m140 0h14m259 0h7m-434 1h14m140 0h14m259 0h7m-434 1h14m140 0h14m259 0h7m-434 1h14m140 0h14m259 0h7m-434 1h7m-7 1h7m-7 1h7m-7 1h7m-7 1h7m-7 1h7m-7 1h7m-7 1h7m-7 1h7m-7 1h7m-7 1h7m-7 1h7m-7 1h7m-7 1h7m-7 1h7m-7 1h7m-7 1h7m-7 1h7m-7 1h7m-7 1h7m-7 1h7m-7 1h7m-7 1h7m-7 1h7m-7 1h7m-7 1h7m-7 1h7m-7 1h7"/><path stroke="#02303a" d="M19 29h315M19 30h315M19 31h315M19 32h315M19 33h315M19 34h315M19 35h315M12 36h7m-7 1h7m-7 1h7m-7 1h7m-7 1h7m-7 1h7m-7 1h7m-7 1h7m-7 1h7m-7 1h7m-7 1h7m-7 1h7m-7 1h7m-7 1h7m-7 1h7m14 0h28m7 0h105m14 0h133M12 51h7m14 0h28m7 0h105m14 0h133M12 52h7m14 0h28m7 0h105m14 0h133M12 53h7m14 0h28m7 0h105m14 0h133M12 54h7m14 0h28m7 0h105m14 0h133M12 55h7m14 0h28m7 0h105m14 0h133M12 56h7m14 0h28m7 0h105m14 0h133M12 57h7m14 0h7m14 0h21m14 0h7m35 0h7m28 0h14m7 0h7m28 0h14m35 0h7m14 0h7m14 0h7M12 58h7m14 0h7m14 0h21m14 0h7m35 0h7m28 0h14m7 0h7m28 0h14m35 0h7m14 0h7m14 0h7M12 59h7m14 0h7m14 0h21m14 0h7m35 0h7m28 0h14m7 0h7m28 0h14m35 0h7m14 0h7m14 0h7M12 60h7m14 0h7m14 0h21m14 0h7m35 0h7m28 0h14m7 0h7m28 0h14m35 0h7m14 0h7m14 0h7M12 61h7m14 0h7m14 0h21m14 0h7m35 0h7m28 0h14m7 0h7m28 0h14m35 0h7m14 0h7m14 0h7M12 62h7m14 0h7m14 0h21m14 0h7m35 0h7m28 0h14m7 0h7m28 0h14m35 0h7m14 0h7m14 0h7M12 63h7m14 0h7m14 0h21m14 0h7m35 0h7m28 0h14m7 0h7m28 0h14m35 0h7m14 0h7m14 0h7M12 64h7m14 0h7m21 0h7m21 0h7m14 0h7m14 0h7m14 0h7m14 0h7m7 0h7m14 0h7m14 0h7m14 0h28m14 0h7m14 0h7M12 65h7m14 0h7m21 0h7m21 0h7m14 0h7m14 0h7m14 0h7m14 0h7m7 0h7m14 0h7m14 0h7m14 0h28m14 0h7m14 0h7M12 66h7m14 0h7m21 0h7m21 0h7m14 0h7m14 0h7m14 0h7m14 0h7m7 0h7m14 0h7m14 0h7m14 0h28m14 0h7m14 0h7M12 67h7m14 0h7m21 0h7m21 0h7m14 0h7m14 0h7m14 0h7m14 0h7m7 0h7m14 0h7m14 0h7m14 0h28m14 0h7m14 0h7M12 68h7m14 0h7m21 0h7m21 0h7m14 0h7m14 0h7m14 0h7m14 0h7m7 0h7m14 0h7m14 0h7m14 0h28m14 0h7m14 0h7M12 69h7m14 0h7m21 0h7m21 0h7m14 0h7m14 0h7m14 0h7m14 0h7m7 0h7m14 0h7m14 0h7m14 0h28m14 0h7m14 0h7M12 70h7m14 0h7m21 0h7m21 0h7m14 0h7m14 0h7m14 0h7m14 0h7m7 0h7m14 0h7m14 0h7m14 0h28m14 0h7m14 0h7M12 71h7m14 0h7m49 0h7m14 0h7m14 0h7m14 0h7m14 0h7m7 0h7m14 0h7m14 0h7m28 0h14m14 0h7m14 0h7M12 72h7m14 0h7m49 0h7m14 0h7m14 0h7m14 0h7m14 0h7m7 0h7m14 0h7m14 0h7m28 0h14m14 0h7m14 0h7M12 73h7m14 0h7m49 0h7m14 0h7m14 0h7m14 0h7m14 0h7m7 0h7m14 0h7m14 0h7m28 0h14m14 0h7m14 0h7M12 74h7m14 0h7m49 0h7m14 0h7m14 0h7m14 0h7m14 0h7m7 0h7m14 0h7m14 0h7m28 0h14m14 0h7m14 0h7M12 75h7m14 0h7m49 0h7m14 0h7m14 0h7m14 0h7m14 0h7m7 0h7m14 0h7m14 0h7m28 0h14m14 0h7m14 0h7M12 76h7m14 0h7m49 0h7m14 0h7m14 0h7m14 0h7m14 0h7m7 0h7m14 0h7m14 0h7m28 0h14m14 0h7m14 0h7M12 77h7m14 0h7m49 0h7m14 0h7m14 0h7m14 0h7m14 0h7m7 0h7m14 0h7m14 0h7m28 0h14m14 0h7m14 0h7m7 8h7m-7 1h7m-7 1h7m-7 1h7m-7 1h7m-7 1h7m-7 1h7m-7 1h7m-7 1h7m-7 1h7m-7 1h7m-7 1h7m-7 1h7m-7 1h7m-7 1h7m-7 1h7m-7 1h7m-7 1h7m-7 1h7m-7 1h7m-7 1h7"/><path stroke="#aab0b3" d="M348 29h7m413 0h7m-427 1h7m413 0h7m-427 1h7m413 0h7m-427 1h7m413 0h7m-427 1h7m413 0h7m-427 1h7m413 0h7m-427 1h7m413 0h7m0 15h7m-7 1h7m-7 1h7m-7 1h7m-7 1h7m-7 1h7m-7 1h7m-7 8h7m-7 1h7m-7 1h7m-7 1h7m-7 1h7m-7 1h7m-7 1h7m-7 1h7m-7 1h7m-7 1h7m-7 1h7m-7 1h7m-7 1h7m-7 1h7m-7 1h7m-7 1h7m-7 1h7m-7 1h7m-7 1h7m-7 1h7m-7 1h7m-434 1h14m126 0h21m259 0h14m-434 1h14m126 0h21m259 0h14m-434 1h14m126 0h21m259 0h14m-434 1h14m126 0h21m259 0h14m-434 1h14m126 0h21m259 0h14m-434 1h14m126 0h21m259 0h14m-434 1h14m126 0h21m259 0h14m-434 1h21m112 0h28m259 0h14m-434 1h21m112 0h28m259 0h14m-434 1h21m112 0h28m259 0h14m-434 1h21m112 0h28m259 0h14m-434 1h21m112 0h28m259 0h14m-434 1h21m112 0h28m259 0h14m-434 1h21m112 0h28m259 0h14m-434 1h28m7 0h14m56 0h21m7 0h301m-434 1h28m7 0h14m56 0h21m7 0h301m-434 1h28m7 0h14m56 0h21m7 0h301m-434 1h28m7 0h14m56 0h21m7 0h301m-434 1h28m7 0h14m56 0h21m7 0h301m-434 1h28m7 0h14m56 0h21m7 0h301m-434 1h28m7 0h14m56 0h21m7 0h301m-434 1h49m56 0h329m-434 1h49m56 0h329m-434 1h49m56 0h329m-434 1h49m56 0h329m-434 1h49m56 0h329m-434 1h49m56 0h329m-434 1h49m56 0h329m-441 1h7m7 0h42m56 0h315m7 0h7m-441 1h7m7 0h42m56 0h315m7 0h7m-441 1h7m7 0h42m56 0h315m7 0h7m-441 1h7m7 0h42m56 0h315m7 0h7m-441 1h7m7 0h42m56 0h315m7 0h7m-441 1h7m7 0h42m56 0h315m7 0h7m-441 1h7m7 0h42m56 0h315m7 0h7m-455 1h21m7 0h56m28 0h329m7 0h7m-455 1h21m7 0h56m28 0h329m7 0h7m-455 1h21m7 0h56m28 0h329m7 0h7m-455 1h21m7 0h56m28 0h329m7 0h7m-455 1h21m7 0h56m28 0h329m7 0h7m-455 1h21m7 0h56m28 0h329m7 0h7m-455 1h21m7 0h56m28 0h329m7 0h7"/><path stroke="#6e7f8f" d="M383 29h21m42 0h21m-84 1h21m42 0h21m-84 1h21m42 0h21m-84 1h21m42 0h21m-84 1h21m42 0h21m-84 1h21m42 0h21m-84 1h21m42 0h21m-91 1h7m28 0h28m28 0h7m-98 1h7m28 0h28m28 0h7m-98 1h7m28 0h28m28 0h7m-98 1h7m28 0h28m28 0h7m-98 1h7m28 0h28m28 0h7m-98 1h7m28 0h28m28 0h7m-98 1h7m28 0h28m28 0h7m-105 1h7m21 0h7m42 0h7m21 0h7m-112 1h7m21 0h7m42 0h7m21 0h7m-112 1h7m21 0h7m42 0h7m21 0h7m-112 1h7m21 0h7m42 0h7m21 0h7m-112 1h7m21 0h7m42 0h7m21 0h7m-112 1h7m21 0h7m42 0h7m21 0h7m-112 1h7m21 0h7m42 0h7m21 0h7m-119 1h7m112 0h7m-126 1h7m112 0h7m-126 1h7m112 0h7m-126 1h7m112 0h7m-126 1h7m112 0h7m-126 1h7m112 0h7m-126 1h7m112 0h7m-133 1h7m28 0h7m56 0h7m28 0h7m-140 1h7m28 0h7m56 0h7m28 0h7m-140 1h7m28 0h7m56 0h7m28 0h7m-140 1h7m28 0h7m56 0h7m28 0h7m-140 1h7m28 0h7m56 0h7m28 0h7m-140 1h7m28 0h7m56 0h7m28 0h7m-140 1h7m28 0h7m56 0h7m28 0h7m-140 1h7m28 0h7m56 0h7m28 0h7m-140 1h7m28 0h7m56 0h7m28 0h7m-140 1h7m28 0h7m56 0h7m28 0h7m-140 1h7m28 0h7m56 0h7m28 0h7m-140 1h7m28 0h7m56 0h7m28 0h7m-140 1h7m28 0h7m56 0h7m28 0h7m-140 1h7m28 0h7m56 0h7m28 0h7m-105 1h7m56 0h7m-70 1h7m56 0h7m-70 1h7m56 0h7m-70 1h7m56 0h7m-70 1h7m56 0h7m-70 1h7m56 0h7m-70 1h7m56 0h7m-70 1h7m56 0h7m-70 1h7m56 0h7m-70 1h7m56 0h7m-70 1h7m56 0h7m-70 1h7m56 0h7m-70 1h7m56 0h7m-70 1h7m56 0h7"/><path stroke="#c7d1d1" d="M467 29h91m14 0h14m98 0h14m-231 1h91m14 0h14m98 0h14m-231 1h91m14 0h14m98 0h14m-231 1h91m14 0h14m98 0h14m-231 1h91m14 0h14m98 0h14m-231 1h91m14 0h14m98 0h14m-231 1h91m14 0h14m98 0h14m-224 1h91m14 0h14m98 0h14m-231 1h91m14 0h14m98 0h14m-231 1h91m14 0h14m98 0h14m-231 1h91m14 0h14m98 0h14m-231 1h91m14 0h14m98 0h14m-231 1h91m14 0h14m98 0h14m-231 1h91m14 0h14m98 0h14m-224 1h91m14 0h14m98 0h14m-231 1h91m14 0h14m98 0h14m-231 1h91m14 0h14m98 0h14m-231 1h91m14 0h14m98 0h14m-231 1h91m14 0h14m98 0h14m-231 1h91m14 0h14m98 0h14m-231 1h91m14 0h14m98 0h14m-224 1h21m196 0h14m-231 1h21m196 0h14m-231 1h21m196 0h14m-231 1h21m196 0h14m-231 1h21m196 0h14m-231 1h21m196 0h14m-231 1h21m196 0h14m-224 1h14m203 0h7m-224 1h14m203 0h7m-224 1h14m203 0h7m-224 1h14m203 0h7m-224 1h14m203 0h7m-224 1h14m203 0h7m-224 1h14m203 0h7m-224 1h14m-14 1h14m-14 1h14m-14 1h14m-14 1h14m-14 1h14m-14 1h14m-7 1h7m-7 1h7m-7 1h7m-7 1h7m-7 1h7m-7 1h7m-7 1h7"/><path stroke="#04876f" d="M19 36h287m7 0h7M19 37h287m7 0h7M19 38h287m7 0h7M19 39h287m7 0h7M19 40h287m7 0h7M19 41h287m7 0h7M19 42h287m7 0h7M19 43h7m-7 1h7m-7 1h7m-7 1h7m-7 1h7m-7 1h7m-7 1h7m-7 8h7m-7 1h7m-7 1h7m-7 1h7m-7 1h7m-7 1h7m-7 1h7"/><path stroke="#036b68" d="M306 36h7m7 0h14m-28 1h7m7 0h14m-28 1h7m7 0h14m-28 1h7m7 0h14m-28 1h7m7 0h14m-28 1h7m7 0h14m-28 1h7m7 0h14M26 43h308M26 44h308M26 45h308M26 46h308M26 47h308M26 48h308M26 49h308M19 50h14m28 0h7m105 0h14m133 0h7M19 51h14m28 0h7m105 0h14m133 0h7M19 52h14m28 0h7m105 0h14m133 0h7M19 53h14m28 0h7m105 0h14m133 0h7M19 54h14m28 0h7m105 0h14m133 0h7M19 55h14m28 0h7m105 0h14m133 0h7M19 56h14m28 0h7m105 0h14m133 0h7M26 57h7m147 0h7m133 0h14M26 58h7m147 0h7m133 0h14M26 59h7m147 0h7m133 0h14M26 60h7m147 0h7m133 0h14M26 61h7m147 0h7m133 0h14M26 62h7m147 0h7m133 0h14M26 63h7m147 0h7m133 0h14M19 64h14m147 0h7m133 0h7M19 65h14m147 0h7m133 0h7M19 66h14m147 0h7m133 0h7M19 67h14m147 0h7m133 0h7M19 68h14m147 0h7m133 0h7M19 69h14m147 0h7m133 0h7M19 70h14m147 0h7m133 0h7M19 71h14m147 0h7m133 0h7M19 72h14m147 0h7m133 0h7M19 73h14m147 0h7m133 0h7M19 74h14m147 0h7m133 0h7M19 75h14m147 0h7m133 0h7M19 76h14m147 0h7m133 0h7M19 77h14m147 0h7m133 0h7M19 78h14m147 0h7m133 0h7M19 79h14m147 0h7m133 0h7M19 80h14m147 0h7m133 0h7M19 81h14m147 0h7m133 0h7M19 82h14m147 0h7m133 0h7M19 83h14m147 0h7m133 0h7M19 84h14m147 0h7m133 0h7M19 85h7m-7 1h7m-7 1h7m-7 1h7m-7 1h7m-7 1h7m-7 1h7m-7 1h7m-7 1h7m-7 1h7m-7 1h7m-7 1h7m-7 1h7m-7 1h7m-7 1h7m-7 1h7m-7 1h7m-7 1h7m-7 1h7m-7 1h7m-7 1h7"/><path stroke="#c4d7e0" d="M383 36h7m70 0h7m-84 1h7m70 0h7m-84 1h7m70 0h7m-84 1h7m70 0h7m-84 1h7m70 0h7m-84 1h7m70 0h7m-84 1h7m70 0h7m-91 1h7m-7 1h7m-7 1h7m-7 1h7m-7 1h7m-7 1h7m-7 1h7m-14 1h7m42 0h14m-63 1h7m42 0h14m-63 1h7m42 0h14m-63 1h7m42 0h14m-63 1h7m42 0h14m-63 1h7m42 0h14m-63 1h7m42 0h14m-14 1h14m-14 1h14m-14 1h14m-14 1h14m-14 1h14m-14 1h14m-14 1h14m-14 1h7m-7 1h7m-7 1h7m-7 1h7m-7 1h7m-7 1h7m-7 1h7"/><path stroke="#afbfc9" d="M390 36h7m56 0h7m-70 1h7m56 0h7m-70 1h7m56 0h7m-70 1h7m56 0h7m-70 1h7m56 0h7m-70 1h7m56 0h7m-70 1h7m56 0h7m-49 1h28m28 0h7m-63 1h28m28 0h7m-63 1h28m28 0h7m-63 1h28m28 0h7m-63 1h28m28 0h7m-63 1h28m28 0h7m-63 1h28m28 0h7m-70 1h14m14 0h14m28 0h7m-77 1h14m14 0h14m28 0h7m-77 1h14m14 0h14m28 0h7m-77 1h14m14 0h14m28 0h7m-77 1h14m14 0h14m28 0h7m-77 1h14m14 0h14m28 0h7m-77 1h14m14 0h14m28 0h7m-119 1h7m7 0h7m14 0h21m14 0h21m14 0h7m7 0h7m-126 1h7m7 0h7m14 0h21m14 0h21m14 0h7m7 0h7m-126 1h7m7 0h7m14 0h21m14 0h21m14 0h7m7 0h7m-126 1h7m7 0h7m14 0h21m14 0h21m14 0h7m7 0h7m-126 1h7m7 0h7m14 0h21m14 0h21m14 0h7m7 0h7m-126 1h7m7 0h7m14 0h21m14 0h21m14 0h7m7 0h7m-126 1h7m7 0h7m14 0h21m14 0h21m14 0h7m7 0h7m-126 1h21m28 0h7m7 0h14m28 0h21m-126 1h21m28 0h7m7 0h14m28 0h21m-126 1h21m28 0h7m7 0h14m28 0h21m-126 1h21m28 0h7m7 0h14m28 0h21m-126 1h21m28 0h7m7 0h14m28 0h21m-126 1h21m28 0h7m7 0h14m28 0h21m-126 1h21m28 0h7m7 0h14m28 0h21m-119 1h14m28 0h28m28 0h14m-112 1h14m28 0h28m28 0h14m-112 1h14m28 0h28m28 0h14m-112 1h14m28 0h28m28 0h14m-112 1h14m28 0h28m28 0h14m-112 1h14m28 0h28m28 0h14m-112 1h14m28 0h28m28 0h14m-105 1h7m28 0h7m14 0h7m28 0h7m-98 1h7m28 0h7m14 0h7m28 0h7m-98 1h7m28 0h7m14 0h7m28 0h7m-98 1h7m28 0h7m14 0h7m28 0h7m-98 1h7m28 0h7m14 0h7m28 0h7m-98 1h7m28 0h7m14 0h7m28 0h7m-98 1h7m28 0h7m14 0h7m28 0h7m-63 1h28m-28 1h28m-28 1h28m-28 1h28m-28 1h28m-28 1h28m-28 1h28m-35 1h42m-42 1h42m-42 1h42m-42 1h42m-42 1h42m-42 1h42m-42 1h42m-28 1h14m-14 1h14m-14 1h14m-14 1h14m-14 1h14m-14 1h14m-14 1h14m-14 8h14m-14 1h14m-14 1h14m-14 1h14m-14 1h14m-14 1h14m-14 1h14m-14 8h14m-14 1h14m-14 1h14m-14 1h14m-14 1h14m-14 1h14m-14 1h14"/><path stroke="#839aa5" d="M397 36h7m42 0h7m-56 1h7m42 0h7m-56 1h7m42 0h7m-56 1h7m42 0h7m-56 1h7m42 0h7m-56 1h7m42 0h7m-56 1h7m42 0h7m-70 1h14m7 0h7m28 0h7m7 0h14m-84 1h14m7 0h7m28 0h7m7 0h14m-84 1h14m7 0h7m28 0h7m7 0h14m-84 1h14m7 0h7m28 0h7m7 0h14m-84 1h14m7 0h7m28 0h7m7 0h14m-84 1h14m7 0h7m28 0h7m7 0h14m-84 1h14m7 0h7m28 0h7m7 0h14m-91 1h28m42 0h28m-98 1h28m42 0h28m-98 1h28m42 0h28m-98 1h28m42 0h28m-98 1h28m42 0h28m-98 1h28m42 0h28m-98 1h28m42 0h28m-105 1h7m7 0h7m70 0h7m7 0h7m-112 1h7m7 0h7m70 0h7m7 0h7m-112 1h7m7 0h7m70 0h7m7 0h7m-112 1h7m7 0h7m70 0h7m7 0h7m-112 1h7m7 0h7m70 0h7m7 0h7m-112 1h7m7 0h7m70 0h7m7 0h7m-112 1h7m7 0h7m70 0h7m7 0h7m-98 1h7m70 0h7m-84 1h7m70 0h7m-84 1h7m70 0h7m-84 1h7m70 0h7m-84 1h7m70 0h7m-84 1h7m70 0h7m-84 1h7m70 0h7m-105 1h7m14 0h7m70 0h7m14 0h7m-126 1h7m14 0h7m70 0h7m14 0h7m-126 1h7m14 0h7m70 0h7m14 0h7m-126 1h7m14 0h7m70 0h7m14 0h7m-126 1h7m14 0h7m70 0h7m14 0h7m-126 1h7m14 0h7m70 0h7m14 0h7m-126 1h7m14 0h7m70 0h7m14 0h7m-126 1h14m7 0h7m28 0h14m28 0h7m7 0h14m-126 1h14m7 0h7m28 0h14m28 0h7m7 0h14m-126 1h14m7 0h7m28 0h14m28 0h7m7 0h14m-126 1h14m7 0h7m28 0h14m28 0h7m7 0h14m-126 1h14m7 0h7m28 0h14m28 0h7m7 0h14m-126 1h14m7 0h7m28 0h14m28 0h7m7 0h14m-126 1h14m7 0h7m28 0h14m28 0h7m7 0h14m-119 1h21m7 0h14m28 0h14m7 0h21m-112 1h21m7 0h14m28 0h14m7 0h21m-112 1h21m7 0h14m28 0h14m7 0h21m-112 1h21m7 0h14m28 0h14m7 0h21m-112 1h21m7 0h14m28 0h14m7 0h21m-112 1h21m7 0h14m28 0h14m7 0h21m-112 1h21m7 0h14m28 0h14m7 0h21m-84 1h7m42 0h7m-56 1h7m42 0h7m-56 1h7m42 0h7m-56 1h7m42 0h7m-56 1h7m42 0h7m-56 1h7m42 0h7m-56 1h7m42 0h7m-35 8h14m-14 1h14m-14 1h14m-14 1h14m-14 1h14m-14 1h14m-14 1h14m-14 8h14m-14 1h14m-14 1h14m-14 1h14m-14 1h14m-14 1h14m-14 1h14m-14 8h14m-14 1h14m-14 1h14m-14 1h14m-14 1h14m-14 1h14m-14 1h14"/><path stroke="#565f78" d="M404 36h7m28 0h7m-42 1h7m28 0h7m-42 1h7m28 0h7m-42 1h7m28 0h7m-42 1h7m28 0h7m-42 1h7m28 0h7m-42 1h7m28 0h7m-91 29h7m126 0h7m-140 1h7m126 0h7m-140 1h7m126 0h7m-140 1h7m126 0h7m-140 1h7m126 0h7m-140 1h7m126 0h7m-140 1h7m126 0h7m-140 1h7m126 0h7m-140 1h7m126 0h7m-140 1h7m126 0h7m-140 1h7m126 0h7m-140 1h7m126 0h7m-140 1h7m126 0h7m-140 1h7m126 0h7m-133 1h7m21 0h7m56 0h7m21 0h7m-126 1h7m21 0h7m56 0h7m21 0h7m-126 1h7m21 0h7m56 0h7m21 0h7m-126 1h7m21 0h7m56 0h7m21 0h7m-126 1h7m21 0h7m56 0h7m21 0h7m-126 1h7m21 0h7m56 0h7m21 0h7m-126 1h7m21 0h7m56 0h7m21 0h7m-119 1h28m56 0h28m-112 1h28m56 0h28m-112 1h28m56 0h28m-112 1h28m56 0h28m-112 1h28m56 0h28m-112 1h28m56 0h28m-112 1h28m56 0h28m-84 1h7m7 0h7m14 0h7m7 0h7m-56 1h7m7 0h7m14 0h7m7 0h7m-56 1h7m7 0h7m14 0h7m7 0h7m-56 1h7m7 0h7m14 0h7m7 0h7m-56 1h7m7 0h7m14 0h7m7 0h7m-56 1h7m7 0h7m14 0h7m7 0h7m-56 1h7m7 0h7m14 0h7m7 0h7m-56 1h7m7 0h7m14 0h7m7 0h7m-56 1h7m7 0h7m14 0h7m7 0h7m-56 1h7m7 0h7m14 0h7m7 0h7m-56 1h7m7 0h7m14 0h7m7 0h7m-56 1h7m7 0h7m14 0h7m7 0h7m-56 1h7m7 0h7m14 0h7m7 0h7m-56 1h7m7 0h7m14 0h7m7 0h7m-42 1h7m14 0h7m-28 1h7m14 0h7m-28 1h7m14 0h7m-28 1h7m14 0h7m-28 1h7m14 0h7m-28 1h7m14 0h7m-28 1h7m14 0h7m-28 1h7m14 0h7m-28 1h7m14 0h7m-28 1h7m14 0h7m-28 1h7m14 0h7m-28 1h7m14 0h7m-28 1h7m14 0h7m-28 1h7m14 0h7m-28 1h7m14 0h7m-28 1h7m14 0h7m-28 1h7m14 0h7m-28 1h7m14 0h7m-28 1h7m14 0h7m-28 1h7m14 0h7m-28 1h7m14 0h7m-28 1h7m14 0h7m-28 1h7m14 0h7m-28 1h7m14 0h7m-28 1h7m14 0h7m-28 1h7m14 0h7m-28 1h7m14 0h7m-28 1h7m14 0h7m-21 1h14m-14 1h14m-14 1h14m-14 1h14m-14 1h14m-14 1h14m-14 1h14"/><path stroke="#024b52" d="M327 50h7m-7 1h7m-7 1h7m-7 1h7m-7 1h7m-7 1h7m-7 1h7m-7 8h7m-7 1h7m-7 1h7m-7 1h7m-7 1h7m-7 1h7m-7 1h7m-7 1h7m-7 1h7m-7 1h7m-7 1h7m-7 1h7m-7 1h7m-7 1h7m-7 1h7m-7 1h7m-7 1h7m-7 1h7m-7 1h7m-7 1h7m-7 1h7M26 85h7m147 0h7m126 0h14M26 86h7m147 0h7m126 0h14M26 87h7m147 0h7m126 0h14M26 88h7m147 0h7m126 0h14M26 89h7m147 0h7m126 0h14M26 90h7m147 0h7m126 0h14M26 91h7m147 0h7m126 0h14M26 92h7m28 0h7m105 0h14m91 0h7m21 0h21M26 93h7m28 0h7m105 0h14m91 0h7m21 0h21M26 94h7m28 0h7m105 0h14m91 0h7m21 0h21M26 95h7m28 0h7m105 0h14m91 0h7m21 0h21M26 96h7m28 0h7m105 0h14m91 0h7m21 0h21M26 97h7m28 0h7m105 0h14m91 0h7m21 0h21M26 98h7m28 0h7m105 0h14m91 0h7m21 0h21M26 99h301m-301 1h301m-301 1h301m-301 1h301m-301 1h301m-301 1h301m-301 1h301m-308 1h308m-308 1h308m-308 1h308m-308 1h308m-308 1h308m-308 1h308m-308 1h308"/><path stroke="#fff" d="M40 57h14m21 0h14m7 0h35m7 0h28m28 0h28m14 0h35m7 0h14m7 0h14m203 0h35m7 0h35m7 0h35m7 0h28m14 0h14m28 0h35M40 58h14m21 0h14m7 0h35m7 0h28m28 0h28m14 0h35m7 0h14m7 0h14m203 0h35m7 0h35m7 0h35m7 0h28m14 0h14m28 0h35M40 59h14m21 0h14m7 0h35m7 0h28m28 0h28m14 0h35m7 0h14m7 0h14m203 0h35m7 0h35m7 0h35m7 0h28m14 0h14m28 0h35M40 60h14m21 0h14m7 0h35m7 0h28m28 0h28m14 0h35m7 0h14m7 0h14m203 0h35m7 0h35m7 0h35m7 0h28m14 0h14m28 0h35M40 61h14m21 0h14m7 0h35m7 0h28m28 0h28m14 0h35m7 0h14m7 0h14m203 0h35m7 0h35m7 0h35m7 0h28m14 0h14m28 0h35M40 62h14m21 0h14m7 0h35m7 0h28m28 0h28m14 0h35m7 0h14m7 0h14m203 0h35m7 0h35m7 0h35m7 0h28m14 0h14m28 0h35M40 63h14m21 0h14m7 0h35m7 0h28m28 0h28m14 0h35m7 0h14m7 0h14m203 0h35m7 0h35m7 0h35m7 0h28m14 0h14m28 0h35M40 64h21m7 0h21m7 0h14m7 0h14m7 0h14m7 0h14m21 0h14m7 0h14m7 0h14m28 0h14m7 0h14m203 0h14m28 0h14m7 0h14m7 0h14m7 0h14m7 0h14m7 0h14m7 0h14m28 0h14M40 65h21m7 0h21m7 0h14m7 0h14m7 0h14m7 0h14m21 0h14m7 0h14m7 0h14m28 0h14m7 0h14m203 0h14m28 0h14m7 0h14m7 0h14m7 0h14m7 0h14m7 0h14m7 0h14m28 0h14M40 66h21m7 0h21m7 0h14m7 0h14m7 0h14m7 0h14m21 0h14m7 0h14m7 0h14m28 0h14m7 0h14m203 0h14m28 0h14m7 0h14m7 0h14m7 0h14m7 0h14m7 0h14m7 0h14m28 0h14M40 67h21m7 0h21m7 0h14m7 0h14m7 0h14m7 0h14m21 0h14m7 0h14m7 0h14m28 0h14m7 0h14m203 0h14m28 0h14m7 0h14m7 0h14m7 0h14m7 0h14m7 0h14m7 0h14m28 0h14M40 68h21m7 0h21m7 0h14m7 0h14m7 0h14m7 0h14m21 0h14m7 0h14m7 0h14m28 0h14m7 0h14m203 0h14m28 0h14m7 0h14m7 0h14m7 0h14m7 0h14m7 0h14m7 0h14m28 0h14M40 69h21m7 0h21m7 0h14m7 0h14m7 0h14m7 0h14m21 0h14m7 0h14m7 0h14m28 0h14m7 0h14m203 0h14m28 0h14m7 0h14m7 0h14m7 0h14m7 0h14m7 0h14m7 0h14m28 0h14M40 70h21m7 0h21m7 0h14m7 0h14m7 0h14m7 0h14m21 0h14m7 0h14m7 0h14m28 0h14m7 0h14m203 0h14m28 0h14m7 0h14m7 0h14m7 0h14m7 0h14m7 0h14m7 0h14m28 0h14M40 71h49m7 0h14m7 0h14m7 0h14m7 0h14m21 0h14m7 0h14m7 0h28m14 0h14m7 0h14m203 0h14m28 0h28m14 0h35m7 0h14m7 0h14m7 0h14m28 0h28M40 72h49m7 0h14m7 0h14m7 0h14m7 0h14m21 0h14m7 0h14m7 0h28m14 0h14m7 0h14m203 0h14m28 0h28m14 0h35m7 0h14m7 0h14m7 0h14m28 0h28M40 73h49m7 0h14m7 0h14m7 0h14m7 0h14m21 0h14m7 0h14m7 0h28m14 0h14m7 0h14m203 0h14m28 0h28m14 0h35m7 0h14m7 0h14m7 0h14m28 0h28M40 74h49m7 0h14m7 0h14m7 0h14m7 0h14m21 0h14m7 0h14m7 0h28m14 0h14m7 0h14m203 0h14m28 0h28m14 0h35m7 0h14m7 0h14m7 0h14m28 0h28M40 75h49m7 0h14m7 0h14m7 0h14m7 0h14m21 0h14m7 0h14m7 0h28m14 0h14m7 0h14m203 0h14m28 0h28m14 0h35m7 0h14m7 0h14m7 0h14m28 0h28M40 76h49m7 0h14m7 0h14m7 0h14m7 0h14m21 0h14m7 0h14m7 0h28m14 0h14m7 0h14m203 0h14m28 0h28m14 0h35m7 0h14m7 0h14m7 0h14m28 0h28M40 77h49m7 0h14m7 0h14m7 0h14m7 0h14m21 0h14m7 0h14m7 0h28m14 0h14m7 0h14m203 0h14m28 0h28m14 0h35m7 0h14m7 0h14m7 0h14m28 0h28M40 78h14m7 0h7m7 0h14m7 0h14m7 0h14m7 0h14m7 0h14m21 0h14m7 0h14m7 0h14m35 0h21m210 0h14m7 0h14m7 0h14m7 0h14m7 0h14m7 0h14m7 0h14m7 0h14m7 0h14m28 0h14M40 79h14m7 0h7m7 0h14m7 0h14m7 0h14m7 0h14m7 0h14m21 0h14m7 0h14m7 0h14m35 0h21m210 0h14m7 0h14m7 0h14m7 0h14m7 0h14m7 0h14m7 0h14m7 0h14m7 0h14m28 0h14M40 80h14m7 0h7m7 0h14m7 0h14m7 0h14m7 0h14m7 0h14m21 0h14m7 0h14m7 0h14m35 0h21m210 0h14m7 0h14m7 0h14m7 0h14m7 0h14m7 0h14m7 0h14m7 0h14m7 0h14m28 0h14M40 81h14m7 0h7m7 0h14m7 0h14m7 0h14m7 0h14m7 0h14m21 0h14m7 0h14m7 0h14m35 0h21m210 0h14m7 0h14m7 0h14m7 0h14m7 0h14m7 0h14m7 0h14m7 0h14m7 0h14m28 0h14M40 82h14m7 0h7m7 0h14m7 0h14m7 0h14m7 0h14m7 0h14m21 0h14m7 0h14m7 0h14m35 0h21m210 0h14m7 0h14m7 0h14m7 0h14m7 0h14m7 0h14m7 0h14m7 0h14m7 0h14m28 0h14M40 83h14m7 0h7m7 0h14m7 0h14m7 0h14m7 0h14m7 0h14m21 0h14m7 0h14m7 0h14m35 0h21m210 0h14m7 0h14m7 0h14m7 0h14m7 0h14m7 0h14m7 0h14m7 0h14m7 0h14m28 0h14M40 84h14m7 0h7m7 0h14m7 0h14m7 0h14m7 0h14m7 0h14m21 0h14m7 0h14m7 0h14m35 0h21m210 0h14m7 0h14m7 0h14m7 0h14m7 0h14m7 0h14m7 0h14m7 0h14m7 0h14m28 0h14"/><path stroke="#f9f4f8" d="M397 64h7m42 0h7m-56 1h7m42 0h7m-56 1h7m42 0h7m-56 1h7m42 0h7m-56 1h7m42 0h7m-56 1h7m42 0h7m-56 1h7m42 0h7m-7 1h7m-7 1h7m-7 1h7m-7 1h7m-7 1h7m-7 1h7m-7 1h7m-14 29h7m-7 1h7m-7 1h7m-7 1h7m-7 1h7m-7 1h7m-7 1h7m-49 1h7m35 0h14m-56 1h7m35 0h14m-56 1h7m35 0h14m-56 1h7m35 0h14m-56 1h7m35 0h14m-56 1h7m35 0h14m-56 1h7m35 0h14"/><path stroke="#e7d9d3" d="M404 64h7m28 0h7m-42 1h7m28 0h7m-42 1h7m28 0h7m-42 1h7m28 0h7m-42 1h7m28 0h7m-42 1h7m28 0h7m-42 1h7m28 0h7m-49 8h7m42 0h7m-56 1h7m42 0h7m-56 1h7m42 0h7m-56 1h7m42 0h7m-56 1h7m42 0h7m-56 1h7m42 0h7m-56 1h7m42 0h7M40 85h14m21 0h14m7 0h35m7 0h28m28 0h28m14 0h35m21 0h7m217 0h35m7 0h14m7 0h14m7 0h14m7 0h14m7 0h28m14 0h35m7 0h35M40 86h14m21 0h14m7 0h35m7 0h28m28 0h28m14 0h35m21 0h7m217 0h35m7 0h14m7 0h14m7 0h14m7 0h14m7 0h28m14 0h35m7 0h35M40 87h14m21 0h14m7 0h35m7 0h28m28 0h28m14 0h35m21 0h7m217 0h35m7 0h14m7 0h14m7 0h14m7 0h14m7 0h28m14 0h35m7 0h35M40 88h14m21 0h14m7 0h35m7 0h28m28 0h28m14 0h35m21 0h7m217 0h35m7 0h14m7 0h14m7 0h14m7 0h14m7 0h28m14 0h35m7 0h35M40 89h14m21 0h14m7 0h35m7 0h28m28 0h28m14 0h35m21 0h7m217 0h35m7 0h14m7 0h14m7 0h14m7 0h14m7 0h28m14 0h35m7 0h35M40 90h14m21 0h14m7 0h35m7 0h28m28 0h28m14 0h35m21 0h7m217 0h35m7 0h14m7 0h14m7 0h14m7 0h14m7 0h28m14 0h35m7 0h35M40 91h14m21 0h14m7 0h35m7 0h28m28 0h28m14 0h35m21 0h7m217 0h35m7 0h14m7 0h14m7 0h14m7 0h14m7 0h28m14 0h35m7 0h35m-357 8h7m28 0h7m-42 1h7m28 0h7m-42 1h7m28 0h7m-42 1h7m28 0h7m-42 1h7m28 0h7m-42 1h7m28 0h7m-42 1h7m28 0h7"/><path stroke="#f9f4f4" d="M397 71h7m-7 1h7m-7 1h7m-7 1h7m-7 1h7m-7 1h7m-7 1h7m0 29h7m-7 1h7m-7 1h7m-7 1h7m-7 1h7m-7 1h7m-7 1h7m-7 1h7m-7 1h7m-7 1h7m-7 1h7m-7 1h7m-7 1h7m-7 1h7"/><path stroke="#263331" d="M404 71h7m28 0h7m-42 1h7m28 0h7m-42 1h7m28 0h7m-42 1h7m28 0h7m-42 1h7m28 0h7m-42 1h7m28 0h7m-42 1h7m28 0h7"/><path stroke="#011e29" d="M12 78h7m14 0h7m14 0h7m7 0h7m14 0h7m14 0h7m14 0h7m14 0h7m14 0h7m7 0h7m14 0h7m14 0h7m14 0h35m21 0h14M12 79h7m14 0h7m14 0h7m7 0h7m14 0h7m14 0h7m14 0h7m14 0h7m14 0h7m7 0h7m14 0h7m14 0h7m14 0h35m21 0h14M12 80h7m14 0h7m14 0h7m7 0h7m14 0h7m14 0h7m14 0h7m14 0h7m14 0h7m7 0h7m14 0h7m14 0h7m14 0h35m21 0h14M12 81h7m14 0h7m14 0h7m7 0h7m14 0h7m14 0h7m14 0h7m14 0h7m14 0h7m7 0h7m14 0h7m14 0h7m14 0h35m21 0h14M12 82h7m14 0h7m14 0h7m7 0h7m14 0h7m14 0h7m14 0h7m14 0h7m14 0h7m7 0h7m14 0h7m14 0h7m14 0h35m21 0h14M12 83h7m14 0h7m14 0h7m7 0h7m14 0h7m14 0h7m14 0h7m14 0h7m14 0h7m7 0h7m14 0h7m14 0h7m14 0h35m21 0h14M12 84h7m14 0h7m14 0h7m7 0h7m14 0h7m14 0h7m14 0h7m14 0h7m14 0h7m7 0h7m14 0h7m14 0h7m14 0h35m21 0h14M12 85h7m14 0h7m14 0h21m14 0h7m35 0h7m28 0h14m7 0h7m28 0h14m35 0h21m7 0h14M12 86h7m14 0h7m14 0h21m14 0h7m35 0h7m28 0h14m7 0h7m28 0h14m35 0h21m7 0h14M12 87h7m14 0h7m14 0h21m14 0h7m35 0h7m28 0h14m7 0h7m28 0h14m35 0h21m7 0h14M12 88h7m14 0h7m14 0h21m14 0h7m35 0h7m28 0h14m7 0h7m28 0h14m35 0h21m7 0h14M12 89h7m14 0h7m14 0h21m14 0h7m35 0h7m28 0h14m7 0h7m28 0h14m35 0h21m7 0h14M12 90h7m14 0h7m14 0h21m14 0h7m35 0h7m28 0h14m7 0h7m28 0h14m35 0h21m7 0h14M12 91h7m14 0h7m14 0h21m14 0h7m35 0h7m28 0h14m7 0h7m28 0h14m35 0h21m7 0h14M12 92h7m14 0h28m7 0h105m14 0h91m7 0h21M12 93h7m14 0h28m7 0h105m14 0h91m7 0h21M12 94h7m14 0h28m7 0h105m14 0h91m7 0h21M12 95h7m14 0h28m7 0h105m14 0h91m7 0h21M12 96h7m14 0h28m7 0h105m14 0h91m7 0h21M12 97h7m14 0h28m7 0h105m14 0h91m7 0h21M12 98h7m14 0h28m7 0h105m14 0h91m7 0h21M12 99h7m-7 1h7m-7 1h7m-7 1h7m-7 1h7m-7 1h7m-7 1h7m-7 1h7m308 0h7m-322 1h7m308 0h7m-322 1h7m308 0h7m-322 1h7m308 0h7m-322 1h7m308 0h7m-322 1h7m308 0h7m-322 1h7m308 0h7m-315 1h315m-315 1h315m-315 1h315m-315 1h315m-315 1h315m-315 1h315m-315 1h315"/><path stroke="#757580" d="M334 78h7m168 0h7m14 0h7m14 0h7m14 0h7m14 0h7m14 0h7m14 0h7m14 0h7m14 0h7m14 0h28m14 0h28m14 0h7m-455 1h7m168 0h7m14 0h7m14 0h7m14 0h7m14 0h7m14 0h7m14 0h7m14 0h7m14 0h7m14 0h28m14 0h28m14 0h7m-455 1h7m168 0h7m14 0h7m14 0h7m14 0h7m14 0h7m14 0h7m14 0h7m14 0h7m14 0h7m14 0h28m14 0h28m14 0h7m-455 1h7m168 0h7m14 0h7m14 0h7m14 0h7m14 0h7m14 0h7m14 0h7m14 0h7m14 0h7m14 0h28m14 0h28m14 0h7m-455 1h7m168 0h7m14 0h7m14 0h7m14 0h7m14 0h7m14 0h7m14 0h7m14 0h7m14 0h7m14 0h28m14 0h28m14 0h7m-455 1h7m168 0h7m14 0h7m14 0h7m14 0h7m14 0h7m14 0h7m14 0h7m14 0h7m14 0h7m14 0h28m14 0h28m14 0h7m-455 1h7m168 0h7m14 0h7m14 0h7m14 0h7m14 0h7m14 0h7m14 0h7m14 0h7m14 0h7m14 0h28m14 0h28m14 0h7m-455 1h7m168 0h7m35 0h7m14 0h7m14 0h7m14 0h7m14 0h7m28 0h14m35 0h7m35 0h7m14 0h7m-455 1h7m168 0h7m35 0h7m14 0h7m14 0h7m14 0h7m14 0h7m28 0h14m35 0h7m35 0h7m14 0h7m-455 1h7m168 0h7m35 0h7m14 0h7m14 0h7m14 0h7m14 0h7m28 0h14m35 0h7m35 0h7m14 0h7m-455 1h7m168 0h7m35 0h7m14 0h7m14 0h7m14 0h7m14 0h7m28 0h14m35 0h7m35 0h7m14 0h7m-455 1h7m168 0h7m35 0h7m14 0h7m14 0h7m14 0h7m14 0h7m28 0h14m35 0h7m35 0h7m14 0h7m-455 1h7m168 0h7m35 0h7m14 0h7m14 0h7m14 0h7m14 0h7m28 0h14m35 0h7m35 0h7m14 0h7m-455 1h7m168 0h7m35 0h7m14 0h7m14 0h7m14 0h7m14 0h7m28 0h14m35 0h7m35 0h7m14 0h7m-455 1h7m168 0h259m14 0h7m-455 1h7m168 0h259m14 0h7m-455 1h7m168 0h259m14 0h7m-455 1h7m168 0h259m14 0h7m-455 1h7m168 0h259m14 0h7m-455 1h7m168 0h259m14 0h7m-455 1h7m168 0h259m14 0h7m-455 1h7m441 0h7m-455 1h7m441 0h7m-455 1h7m441 0h7m-455 1h7m441 0h7m-455 1h7m441 0h7m-455 1h7m441 0h7m-455 1h7m441 0h7m-455 1h7m441 0h7m-455 1h7m441 0h7m-455 1h7m441 0h7m-455 1h7m441 0h7m-455 1h7m441 0h7m-455 1h7m441 0h7m-455 1h7m441 0h7m-455 1h7m441 0h7m-455 1h7m441 0h7m-455 1h7m441 0h7m-455 1h7m441 0h7m-455 1h7m441 0h7m-455 1h7m441 0h7m-455 1h7m441 0h7m-469 1h7m455 0h7m-469 1h7m455 0h7m-469 1h7m455 0h7m-469 1h7m455 0h7m-469 1h7m455 0h7m-469 1h7m455 0h7m-469 1h7m455 0h7m-462 1h84m28 0h343m-455 1h84m28 0h343m-455 1h84m28 0h343m-455 1h84m28 0h343m-455 1h84m28 0h343m-455 1h84m28 0h343m-455 1h84m28 0h343"/><path stroke="#131a19" d="M404 78h7m28 0h7m-42 1h7m28 0h7m-42 1h7m28 0h7m-42 1h7m28 0h7m-42 1h7m28 0h7m-42 1h7m28 0h7m-42 1h7m28 0h7"/><path stroke="#aab1b3" d="M376 99h7m91 0h7m-105 1h7m91 0h7m-105 1h7m91 0h7m-105 1h7m91 0h7m-105 1h7m91 0h7m-105 1h7m91 0h7m-105 1h7m91 0h7"/><path stroke="#a0a5a9" d="M348 120h7m413 0h7m-427 1h7m413 0h7m-427 1h7m413 0h7m-427 1h7m413 0h7m-427 1h7m413 0h7m-427 1h7m413 0h7m-427 1h7m413 0h7"/></svg>